<svg width="1440" height="1691" xmlns="http://www.w3.org/2000/svg"><g fill="none" fill-rule="evenodd"><path d="M500.5 28.5c5.877-2.473 10.048-4.99 12.514-7.55 3.699-3.84 8.773-11.65 6.418-15.077-2.505-3.648-10.728-1.464-16.139.926-5.41 2.39-10.49 4.139-24.046 16.55-10.038 10.425-13.456 14.195-16.932 28.056-1.705 6.803-.683 11.438 4.256 14.566 6.561 4.155 9.728 3.158 17.688 0 6.934-2.75 13.279-7.606 19.034-14.566M544.5.5l-38 68 24.781-26.539c5.976-5.183 9.592-7.67 10.849-7.461 1.885.313-6.168 15.508-9.88 25.394-1.574 4.193-1.658 8.1 1.473 9.727 2.088 1.085 4.89.044 8.407-3.123l4.75-2.58c.58-6.641 3.521-12.484 8.822-17.526 7.953-7.564 6.1-6.457 16.502-9.738 2.285-.72 5.054.15 8.307 2.612l-13.71 18.741c-4.851 6.082-8.551 9.58-11.099 10.493-2.547.914-5.488-.202-8.822-3.348M583.5 36.5l-12 25c.121 3.605 1.236 6.035 3.346 7.291 2.109 1.257 4.55.944 7.325-.936l11.656-18.645 7.946-12.71m-14.514 26.474c1.943-3.526 9.49-11.532 16.508-17.854 7.04-6.344 13.549-11 14.733-11.62 1.576-.825 2.103 1.033 1.58 5.572l-3.776 7.19" stroke="#979797" stroke-linecap="square"/><path fill="#282020" d="M0 1626h1440v65H0z"/><path d="M630.5 50.5c19.669-25.7 30.076-39.55 31.224-41.552 1.72-3.002-.74-8.153-3.097-7.524-4.45 1.19-9.181 5.158-14.192 11.904-6.406 8.97-11.051 17.13-13.935 24.48-4.326 11.023-5.717 20.932-5.717 25.599 0 4.667 1.684 4.71 5.717 5.646 2.689.623 7.817-1.259 15.384-5.646" stroke="#979797" stroke-linecap="square"/><path d="M670.5 40.5c2.719-2.997 2.719-4.664 0-5-4.078-.505-7.524.432-12.685 3.43-5.16 3-6.164 5.247-7.01 8.014-.564 1.845.365 3.778 2.789 5.797l6.95-1.656c-8.105 5-12.857 8.239-14.258 9.717-2.101 2.218-.432 10.583 8.24 9.349 5.782-.823 11.773-3.571 17.974-8.244l4.775 3.654 4.967 3.328c8.91-1.264 14.353-2.858 16.33-4.783 2.963-2.887 4.91-6.377-.93-10.216-5.84-3.84-15.543.01-16.888-5.224-1.346-5.234 7.547-10.535 12.16-13.166 4.614-2.631 21.908-3.425 13.728-1.6" stroke="#979797" stroke-linecap="square"/></g></svg>