<?xml version="1.0" encoding="UTF-8"?>
<svg width="366px" height="550px" viewBox="0 0 366 550" version="1.1" xmlns="http://www.w3.org/2000/svg" xmlns:xlink="http://www.w3.org/1999/xlink">
    <!-- Generator: Sketch 49.2 (51160) - http://www.bohemiancoding.com/sketch -->
    <title>Alabama</title>
    <desc>Created with Sketch.</desc>
    <defs>
        <path d="M45.5264125,108.029923 L31.4070206,90 L266.15584,93.1018947 C292.603459,200.992254 311.019821,278.325315 321.404926,325.101075 C322.533094,330.18248 327.859235,337.569561 337.383348,347.262319 L353.677045,375.371748 C348.276852,381.6128 345.747411,386.188372 346.088721,389.098465 C346.204141,390.08256 334.645768,405.872477 337.383348,423.234675 C337.980789,427.023745 350.318503,447.450456 353.677045,462.291396 C354.48593,465.865749 351.031135,483.528282 353.677045,497.603304 C355.440985,506.986651 355.440985,518.033256 353.677045,530.743116 L101.85449,533.452142 L100.498671,551.2507 C107.557306,556.844541 112.120058,561.309478 114.186926,564.645509 C116.253794,567.981541 117.055315,572.174818 116.591491,577.225341 L92.7901053,605.260309 L67.7233468,609 C53.7721505,606.506872 46.3731724,605.260309 45.5264125,605.260309 C45.3850273,605.260309 48.4846437,603.526559 54.8252619,600.059061 L71.09319,597.969298 L62.475458,587.890006 L60.0512252,579.905858 L49.3696278,565.550774 L41.4777064,561.440609 L35.987812,566.167239 L35.1497038,592.407041 C30.6942495,593.073017 27.0612948,593.073017 24.2508398,592.407041 C11.4849527,589.381989 15.482469,599.547839 11.1887036,595.432092 C8.90944803,593.247334 9.90792665,535.848195 14.1841395,423.234675 C16.1969926,399.487122 17.8965273,379.979113 19.2827433,364.710646 C20.6689593,349.442179 24.7103851,310.243011 31.4070206,247.113142 L45.5264125,108.029923 Z" id="path-1"></path>
        <filter x="-5.7%" y="-3.0%" width="111.3%" height="109.6%" filterUnits="objectBoundingBox" id="filter-2">
            <feMorphology radius="6" operator="dilate" in="SourceAlpha" result="shadowSpreadOuter1"></feMorphology>
            <feOffset dx="0" dy="15" in="shadowSpreadOuter1" result="shadowOffsetOuter1"></feOffset>
            <feGaussianBlur stdDeviation="2" in="shadowOffsetOuter1" result="shadowBlurOuter1"></feGaussianBlur>
            <feComposite in="shadowBlurOuter1" in2="SourceAlpha" operator="out" result="shadowBlurOuter1"></feComposite>
            <feColorMatrix values="0 0 0 0 0   0 0 0 0 0   0 0 0 0 0  0 0 0 0.5 0" type="matrix" in="shadowBlurOuter1"></feColorMatrix>
        </filter>
    </defs>
    <g id="Launchpage" stroke="none" stroke-width="1" fill="none" fill-rule="evenodd" stroke-linecap="square" stroke-linejoin="round">
        <g id="Desktop-Website" transform="translate(-16.000000, -842.000000)">
            <g id="About-+-Education" transform="translate(16.000000, 758.000000)">
                <g id="Alabama">
                    <use fill="black" fill-opacity="1" filter="url(#filter-2)" xlink:href="#path-1"></use>
                    <use fill="#F47737" fill-rule="evenodd" xlink:href="#path-1"></use>
                    <path stroke="#122B56" stroke-width="6" d="M42.4197605,108.928613 L25.1826563,86.9174914 L268.516842,90.1328303 L269.069573,92.3876391 C295.522057,200.297846 313.942545,277.648233 324.333613,324.450851 C325.302392,328.814351 330.374217,335.848709 339.523203,345.159696 L339.788795,345.429992 L357.34502,375.717499 L355.94568,377.334729 C351.080941,382.956952 348.860142,386.974214 349.068298,388.749005 C349.157837,389.512434 349.033976,389.942493 348.760589,390.581801 C348.662605,390.810935 348.540773,391.058253 348.377233,391.369126 C348.256483,391.598661 348.117496,391.854566 347.904494,392.241528 C347.770205,392.485219 347.770205,392.485219 347.626896,392.744982 C347.507574,392.961363 347.415956,393.127881 347.323112,393.2973 C346.13096,395.472695 345.201771,397.302991 344.270965,399.410667 C340.755493,407.370943 339.154788,415.207875 340.346737,422.767423 C340.428204,423.2841 341.266222,425.208848 342.94244,428.639042 C343.403813,429.583192 345.251576,433.32478 345.608579,434.051763 C346.777874,436.432862 347.733314,438.414911 348.655549,440.387721 C350.140135,443.563493 351.427477,446.484535 352.55335,449.271173 C354.408562,453.862993 355.774805,457.969304 356.603056,461.629233 C356.980811,463.298479 357.029279,462.473581 356.223217,472.856778 C355.725784,479.264409 355.541583,483.919781 355.730829,488.616836 C355.854468,491.685535 356.145705,494.497289 356.625402,497.049053 C358.454339,506.778158 358.454339,518.144219 356.648564,531.155519 L356.293326,533.715145 L104.636921,536.422383 L103.610414,549.897879 C110.218675,555.23225 114.573967,559.574035 116.737138,563.065503 C119.173734,566.998295 120.098854,571.838196 119.578919,577.499698 L119.492194,578.444031 L94.3475768,608.061153 L67.6796632,612.03972 L67.1955969,611.953215 C60.2289352,610.708248 54.900147,609.774859 51.2123066,609.15354 C47.8703096,608.590487 45.6862517,608.260309 45.5264125,608.260309 C45.2042232,608.254186 45.2042232,608.254186 44.6655302,608.134632 C43.9571879,607.880981 43.9571879,607.880981 43.1108662,607.043883 C42.5115445,605.878236 42.5115445,605.878236 42.5467133,604.871724 C42.7118964,604.151627 42.7118964,604.151627 42.9102501,603.780322 C43.4508129,603.053702 43.4508129,603.053702 43.633271,602.922136 C43.759474,602.818434 43.8636401,602.745815 43.9938577,602.661432 C44.123836,602.577203 44.2905604,602.476274 44.5111544,602.346989 C44.9021143,602.117857 45.4895349,601.784214 46.2805852,601.341746 C47.8405113,600.469212 50.2078344,599.164897 53.3858335,597.426943 L53.8820567,597.155573 L65.206623,595.70083 L59.7872706,589.36236 L57.3324593,581.277502 L47.3735949,567.893705 L41.8947318,565.040276 L38.9441988,567.580594 L38.0682822,595.004117 L35.5931995,595.374078 C30.7903318,596.091983 26.7907449,596.091983 23.5591046,595.326202 C19.4444533,594.351179 17.939284,594.772644 17.0958463,595.914347 C16.9149361,596.159232 16.2490367,597.309448 16.1326367,597.484279 C14.3501171,600.161592 11.6059393,599.987651 9.11275408,597.597833 C7.59702266,596.144944 7.2951577,592.83884 7.09452993,583.505299 C6.93343297,576.010797 6.97833617,565.077353 7.22857469,550.691991 C7.72824398,521.967703 9.04747915,479.446414 11.1863,423.120839 L11.1948583,422.981302 C13.2081771,399.228255 14.9082053,379.71458 16.2950315,364.439393 C17.6831933,349.149494 21.7252471,309.944235 28.4223608,246.810147 L42.4197605,108.928613 Z"></path>
                </g>
            </g>
        </g>
    </g>
</svg>